<?xml version="1.0" standalone="no"?>
<!DOCTYPE svg PUBLIC "-//W3C//DTD SVG 20010904//EN"
 "http://www.w3.org/TR/2001/REC-SVG-20010904/DTD/svg10.dtd">
<svg version="1.0" xmlns="http://www.w3.org/2000/svg"
 width="556.000000pt" height="143.000000pt" viewBox="0 0 556.000000 143.000000"
 preserveAspectRatio="xMidYMid meet">

<g transform="translate(0.000000,143.000000) scale(0.100000,-0.100000)"
fill="#000000" stroke="none">
<path d="M4658 1235 c-2 -3 2 -41 10 -85 8 -45 12 -84 8 -87 -3 -4 -34 13 -67
36 -67 48 -96 49 -84 3 3 -15 40 -108 82 -207 161 -383 156 -370 128 -424 -8
-16 -56 -65 -107 -109 -161 -139 -204 -192 -155 -192 17 0 304 159 521 288
163 97 206 129 258 191 11 13 35 21 75 26 77 9 123 24 123 40 0 15 -80 66
-173 111 l-58 29 -53 -29 c-28 -15 -59 -27 -68 -25 -8 2 -66 63 -129 134 -147
168 -280 305 -294 305 -6 0 -14 -2 -17 -5z m261 -334 c73 -83 145 -160 160
-170 25 -18 30 -19 49 -5 30 21 42 10 42 -40 0 -50 -21 -73 -115 -128 -61 -36
-141 -78 -148 -78 -3 0 -9 12 -15 28 -13 32 -142 533 -142 551 0 26 40 -12
169 -158z m-230 60 c23 -23 70 -163 77 -230 l5 -46 -22 40 c-20 36 -109 241
-109 251 0 12 33 1 49 -15z m589 -203 c16 -16 15 -25 -5 -32 -17 -7 -33 9 -33
32 0 15 22 16 38 0z m-458 -323 c-7 -9 -15 -13 -17 -11 -7 7 7 26 19 26 6 0 6
-6 -2 -15z"/>
<path d="M3833 892 c-15 -9 -28 -230 -19 -305 5 -36 13 -57 23 -61 26 -10 43
14 43 60 0 60 20 57 50 -7 29 -60 54 -79 70 -50 6 11 10 88 10 181 0 140 -2
161 -16 167 -22 8 -44 -22 -44 -58 0 -47 -18 -42 -45 10 -26 52 -53 75 -72 63z"/>
<path d="M493 883 c-32 -6 -38 -37 -38 -196 0 -160 4 -167 86 -167 42 0 48 3
53 25 8 33 1 45 -29 45 -37 0 -47 29 -24 67 l21 33 -21 29 c-31 43 -27 68 13
92 79 47 41 92 -61 72z"/>
<path d="M878 884 c-14 -14 -8 -37 15 -62 20 -21 22 -36 27 -154 4 -110 8
-133 22 -142 33 -21 42 7 48 149 3 88 9 138 18 147 13 13 16 44 4 52 -15 9
-127 18 -134 10z"/>
<path d="M3122 883 c-34 -7 -42 -41 -42 -189 0 -122 2 -136 21 -155 16 -16 30
-19 67 -17 40 3 47 6 50 26 3 18 -4 26 -32 37 -39 17 -46 38 -21 71 19 25 19
48 0 64 -22 18 -20 89 3 96 33 10 47 21 50 39 7 31 -29 41 -96 28z"/>
<path d="M125 870 c-8 -13 30 -225 53 -293 19 -58 47 -70 68 -29 18 35 22 36
39 3 25 -49 51 -41 70 22 16 55 55 258 55 289 0 24 -48 25 -57 1 -3 -10 -12
-34 -20 -53 l-14 -35 -14 33 c-8 18 -21 35 -30 38 -20 8 -45 -13 -45 -38 0
-33 -23 -14 -38 30 -11 34 -18 42 -37 42 -13 0 -27 -4 -30 -10z"/>
<path d="M669 851 c-46 -47 -38 -81 37 -163 24 -26 44 -57 44 -69 0 -20 -4
-21 -49 -16 -36 4 -51 2 -54 -7 -9 -22 21 -55 60 -65 54 -15 99 7 112 54 12
45 4 67 -44 125 -42 50 -62 87 -52 96 3 4 24 2 46 -3 48 -13 65 -2 49 32 -23
52 -104 60 -149 16z"/>
<path d="M1077 873 c-10 -10 -8 -316 2 -332 5 -8 32 -16 63 -19 42 -3 57 0 68
13 17 21 3 49 -28 53 -40 6 -47 29 -47 151 0 64 -4 122 -8 129 -9 13 -39 16
-50 5z"/>
<path d="M1290 855 c-29 -31 -42 -108 -34 -197 8 -81 31 -123 72 -131 85 -17
122 38 122 179 0 130 -26 174 -103 174 -23 0 -41 -8 -57 -25z m87 -72 c11 -38
7 -173 -5 -185 -20 -20 -30 3 -37 76 -8 83 0 136 21 136 7 0 17 -12 21 -27z"/>
<path d="M1527 868 c-30 -23 -47 -84 -47 -170 0 -103 19 -146 71 -166 33 -12
41 -12 73 3 56 27 43 55 -25 55 -38 0 -49 27 -49 120 0 94 3 100 56 100 32 0
46 5 51 17 15 39 -88 72 -130 41z"/>
<path d="M1717 873 c-4 -3 -7 -79 -7 -168 0 -126 3 -165 14 -174 24 -20 46 -2
46 38 0 65 15 70 44 14 22 -45 44 -62 79 -63 14 0 7 36 -23 113 -39 103 -39
134 4 190 19 25 32 48 29 51 -4 3 -21 6 -39 6 -24 0 -38 -7 -53 -27 l-21 -28
-21 28 c-20 26 -39 34 -52 20z"/>
<path d="M2040 855 c0 -36 49 -264 66 -303 16 -38 42 -40 60 -4 18 35 22 36
39 3 25 -50 50 -41 68 27 22 78 57 249 57 279 0 21 -4 24 -27 21 -23 -2 -30
-11 -41 -45 -16 -51 -26 -53 -47 -13 -9 17 -20 30 -25 30 -5 0 -19 -13 -32
-30 -28 -38 -35 -38 -43 3 -10 42 -22 57 -51 57 -19 0 -24 -5 -24 -25z"/>
<path d="M2383 853 c-14 -49 -10 -300 5 -315 13 -13 115 -18 127 -6 13 13 -7
48 -30 54 -43 11 -50 29 -25 69 l22 35 -21 34 c-30 47 -28 84 4 92 24 6 55 38
55 56 0 5 -29 8 -65 8 -62 0 -65 -1 -72 -27z"/>
<path d="M2570 854 c-6 -14 -10 -86 -10 -160 0 -121 2 -136 20 -154 23 -23 39
-24 91 -10 53 15 63 47 56 169 -11 155 -26 181 -107 181 -34 0 -42 -4 -50 -26z
m92 -187 c6 -30 -9 -70 -22 -62 -16 10 -13 85 4 85 7 0 16 -11 18 -23z"/>
<path d="M2868 874 c-12 -11 -9 -303 2 -325 9 -15 22 -19 70 -19 39 0 64 5 74
15 21 21 29 86 24 199 -4 118 -12 128 -100 134 -35 2 -66 0 -70 -4z m98 -120
c6 -52 0 -141 -11 -152 -12 -12 -19 13 -23 73 -8 121 20 186 34 79z"/>
<path d="M3309 867 c-55 -42 -48 -105 21 -181 28 -29 50 -62 50 -71 0 -15 -7
-16 -55 -10 -50 6 -55 5 -55 -13 0 -58 108 -85 155 -37 41 40 34 82 -25 156
-27 34 -50 71 -50 81 0 17 5 18 44 13 49 -8 63 3 44 34 -23 38 -96 54 -129 28z"/>
<path d="M3494 813 c-9 -86 1 -272 15 -286 8 -8 16 -9 29 -1 15 10 17 32 20
160 3 176 0 194 -32 194 -23 0 -25 -5 -32 -67z"/>
<path d="M3625 856 c-30 -30 -38 -73 -34 -185 4 -83 6 -93 31 -118 54 -53 136
-25 158 56 17 63 -5 111 -51 111 -37 0 -52 -27 -37 -67 12 -32 6 -63 -12 -63
-7 0 -10 38 -8 113 3 111 3 112 27 109 62 -9 92 22 49 52 -35 24 -94 20 -123
-8z"/>
<path d="M4085 855 c-46 -45 -27 -114 57 -202 39 -41 30 -57 -29 -50 -55 6
-67 -13 -31 -50 50 -50 138 -22 153 48 8 34 -4 58 -62 125 -64 75 -56 98 25
75 48 -14 56 13 14 51 -42 37 -93 38 -127 3z"/>
</g>
</svg>
